<svg width="20" height="20" viewBox="0 0 20 20" fill="none" xmlns="http://www.w3.org/2000/svg">
    <path d="M8.33333 3.33333C3.75 3.33333 0 7.08333 0 11.6667C0 16.25 3.75 20 8.33333 20C12.9167 20 16.6667 16.25 16.6667 11.6667C16.6667 7.08333 12.9167 3.33333 8.33333 3.33333ZM7.25 13.9167L6.41667 14.75C6.25 14.9167 6.08333 15 5.83333 15C5.58333 15 5.41667 14.9167 5.25 14.75C4.91667 14.4167 4.91667 13.9167 5.25 13.5833L6.08333 12.75C6.41667 12.4167 6.91667 12.4167 7.25 12.75C7.58333 13.0833 7.58333 13.5833 7.25 13.9167ZM8.08333 9.75C7.91667 9.91666 7.75 10 7.5 10C7.25 10 7.08333 9.91666 6.91667 9.75L6.08333 8.91666C5.75 8.58333 5.75 8.08333 6.08333 7.75C6.41667 7.41666 6.91667 7.41666 7.25 7.75L8.08333 8.58333C8.41667 8.91666 8.41667 9.41666 8.08333 9.75ZM12.25 12.25L11.4167 13.0833C11.25 13.25 11.0833 13.3333 10.8333 13.3333C10.5833 13.3333 10.4167 13.25 10.25 13.0833C9.91667 12.75 9.91667 12.25 10.25 11.9167L11.0833 11.0833C11.4167 10.75 11.9167 10.75 12.25 11.0833C12.5833 11.4167 12.5833 11.9167 12.25 12.25Z" fill="#424242"/>
    <path d="M18.1666 10.0833C19.3332 9 19.9999 7.5 19.9999 5.83333C19.9999 2.58333 17.4166 0 14.1666 0C12.4999 0 10.9999 0.666667 9.91656 1.83333C14.1666 2.5 17.4999 5.83333 18.1666 10.0833Z" fill="#424242"/>
</svg>
