<svg width="20" height="20" viewBox="0 0 20 20" fill="none" xmlns="http://www.w3.org/2000/svg">
    <path d="M18.3333 0H1.66665C1.20581 0 0.833313 0.373333 0.833313 0.833333V19.1667C0.833313 19.6267 1.20581 20 1.66665 20H18.3333C18.7941 20 19.1666 19.6267 19.1666 19.1667V0.833333C19.1666 0.373333 18.7941 0 18.3333 0ZM16.6666 17.5H3.33331V2.5H5.83331V5H8.33331C8.33331 4.07917 9.07915 3.33333 9.99998 3.33333C10.9208 3.33333 11.6666 4.07917 11.6666 5H14.1666V2.5H16.6666V17.5Z" fill="#424242"/>
    <path d="M9.16666 14.1667C8.95332 14.1667 8.73999 14.085 8.57749 13.9225L6.32166 11.6667L7.49999 10.4883L9.16666 12.155L12.5 8.82167L13.6783 10L9.75582 13.9225C9.59332 14.085 9.37999 14.1667 9.16666 14.1667Z" fill="#424242"/>
</svg>
